<svg class="svg-icon" style="width: 1.32421875em; height: 1em;vertical-align: middle;fill: currentColor;overflow: hidden;" viewBox="0 0 1356 1024" version="1.1" xmlns="http://www.w3.org/2000/svg"><path d="M1177.98424844 348.8003576h-98.28422597a26.27920452 26.27920452 0 0 0-12.61401795 3.1535043l-44.149064-127.71693479a126.66576693 126.66576693 0 0 0-132.9727763-105.11681885H473.1759774a128.76810339 128.76810339 0 0 0-131.92160768 105.11681885l-44.14906401 128.2425191a25.22803668 25.22803668 0 0 0-13.66518656-3.67908861H185.15589397a26.80478883 26.80478883 0 0 0-18.92102733 7.35817719 26.27920452 26.27920452 0 0 0-8.40934581 18.92102733v22.60011592a26.80478883 26.80478883 0 0 0 27.33037314 26.27920452l37.31647033 7.88376151a152.94497145 152.94497145 0 0 0-18.39544303 74.63294143l-14.19077087 150.842635a110.89824391 110.89824391 0 0 0 0 13.13960226v190.26144256a47.8281526 47.8281526 0 0 0 48.87932122 46.77698398H315.5007495a47.8281526 47.8281526 0 0 0 48.87932044-46.77698398v-58.33983487h637.53350682v58.33983487a47.8281526 47.8281526 0 0 0 48.87932043 46.77698398h74.10735712a47.8281526 47.8281526 0 0 0 48.87932121-46.77698398V678.86716858a48.3537369 48.3537369 0 0 0 0-8.40934582 109.84707607 109.84707607 0 0 0 0-13.13960226l-13.66518657-150.842635A162.40548511 162.40548511 0 0 0 1141.71894595 431.84264407l36.26530249-5.78142506a26.80478883 26.80478883 0 0 0 27.33037235-26.27920452v-24.70245237a26.27920452 26.27920452 0 0 0-8.40934504-18.92102731 26.80478883 26.80478883 0 0 0-18.92102731-7.35817721z m-804.14366485-26.80478883l32.58621388-83.04228724c3.1535043-16.81869086 10.51168226-19.44661162 21.02336379-32.58621389h508.76540341c10.51168226 13.13960226 17.34427517 16.81869086 20.49777947 32.58621389l32.58621389 85.14462292 12.08843441 46.25140046a80.41436649 80.41436649 0 0 1-79.88878217 60.44217132H442.16651566a81.46553433 81.46553433 0 0 1-80.41436648-62.54450778l12.08843442-46.25139968z m23.12570023 394.18807014a70.95385283 70.95385283 0 1 1 0-141.38212135 70.95385283 70.95385283 0 1 1 0 141.38212135z m412.05793038-52.55840905a21.02336377 21.02336377 0 0 1-21.54894807 21.02336378H578.29279626a21.54894807 21.54894807 0 0 1-22.07453161-21.02336378V604.75981145a21.54894807 21.54894807 0 0 1 22.07453161-21.02336376h210.2336377a21.54894807 21.54894807 0 0 1 21.54894808 21.02336376v59.39100272z m157.67522791 52.55840905a70.95385283 70.95385283 0 1 1 74.10735711-70.95385206 72.00502066 72.00502066 0 0 1-74.10735711 70.95385206z"  /></svg>